<svg width="24" height="24" viewBox="0 0 24 24" fill="none" xmlns="http://www.w3.org/2000/svg">
<path d="M12.0052 15.86C9.88518 15.86 8.14517 14.14 8.14517 12C8.14517 9.88003 9.86518 8.14002 12.0052 8.14002C14.1252 8.14002 15.8652 9.86003 15.8652 12C15.8652 14.12 14.1252 15.86 12.0052 15.86ZM12.0052 9.56004C10.6652 9.56004 9.56519 10.66 9.56519 12C9.56519 13.34 10.6652 14.44 12.0052 14.44C13.3452 14.44 14.4452 13.34 14.4452 12C14.4452 10.66 13.3452 9.56004 12.0052 9.56004ZM12.0052 21.2H11.9052C11.2052 21.2 10.6052 21.12 10.5652 21.12C10.2452 21.08 10.0052 20.84 9.94517 20.52L9.74517 19.08C9.30517 18.94 8.88518 18.76 8.48518 18.54L7.34517 19.4C7.08517 19.6 6.74518 19.58 6.48518 19.4C6.46518 19.38 5.98518 19 5.48518 18.52L5.40518 18.44C4.90518 17.94 4.54517 17.46 4.52517 17.44C4.32517 17.18 4.32517 16.84 4.52517 16.58L5.40518 15.42C5.18518 15.02 5.02518 14.58 4.88518 14.14L3.48518 13.94C3.16518 13.9 2.92518 13.64 2.88518 13.32C2.88518 13.3 2.80518 12.68 2.80518 11.98V11.88C2.80518 11.18 2.88518 10.58 2.88518 10.54C2.92518 10.22 3.16518 9.98002 3.48518 9.92002L4.92517 9.72002C5.06517 9.28002 5.24519 8.86004 5.46519 8.46004L4.60518 7.32002C4.40518 7.06002 4.42518 6.72004 4.60518 6.46004C4.62518 6.44004 5.00518 5.96004 5.48518 5.46004L5.56519 5.38003C6.06519 4.88003 6.54519 4.52003 6.56519 4.50003C6.82519 4.30003 7.16517 4.30003 7.42517 4.50003L8.58518 5.38003C8.98518 5.16003 9.42519 5.00004 9.86519 4.86004L10.0652 3.46004C10.1052 3.14004 10.3652 2.90004 10.6852 2.86004C10.7052 2.86004 11.3252 2.78003 12.0252 2.78003H12.1252C12.8252 2.78003 13.4252 2.86004 13.4652 2.86004C13.7852 2.90004 14.0252 3.14004 14.0852 3.46004L14.2852 4.90003C14.7252 5.04003 15.1452 5.22002 15.5452 5.44002L16.6852 4.58003C16.9452 4.38003 17.2852 4.40003 17.5452 4.58003C17.5652 4.60003 18.0452 4.98004 18.5452 5.46004L18.6252 5.54002C19.1252 6.04002 19.4852 6.52002 19.5052 6.54002C19.7052 6.80002 19.7052 7.14003 19.5052 7.40003L18.6252 8.56004C18.8452 8.96004 19.0052 9.40002 19.1452 9.84002L20.5452 10.04C20.8652 10.08 21.1052 10.34 21.1452 10.66C21.1452 10.68 21.2252 11.3 21.2252 12V12.1C21.2252 12.8 21.1452 13.4 21.1452 13.44C21.1052 13.76 20.8652 14 20.5452 14.06L19.1052 14.26C18.9652 14.7 18.7852 15.12 18.5652 15.52L19.4252 16.66C19.6252 16.92 19.6052 17.26 19.4252 17.52C19.4052 17.54 19.0252 18.02 18.5452 18.52L18.4652 18.6C17.9652 19.1 17.4852 19.46 17.4652 19.48C17.2052 19.68 16.8652 19.68 16.6052 19.48L15.4452 18.6C15.0452 18.82 14.6052 18.98 14.1652 19.12L13.9652 20.52C13.9252 20.84 13.6652 21.08 13.3452 21.12C13.3052 21.12 12.7052 21.2 12.0052 21.2ZM11.2852 19.76C11.4652 19.78 11.6852 19.78 11.9052 19.78H12.0052C12.2252 19.78 12.4452 19.78 12.6252 19.76L12.8052 18.44C12.8452 18.14 13.0652 17.92 13.3452 17.84C13.9652 17.7 14.5652 17.46 15.1052 17.12C15.2652 17.02 15.4652 17 15.6452 17.04C15.7452 17.06 15.8452 17.12 15.9252 17.18L16.9852 17.98C17.1252 17.86 17.2852 17.72 17.4452 17.56L17.5252 17.48C17.6852 17.32 17.8252 17.16 17.9452 17.02L17.1452 15.96C16.9652 15.72 16.9652 15.4 17.1052 15.16C17.4452 14.64 17.6852 14.06 17.8252 13.46C17.8852 13.16 18.1252 12.92 18.4252 12.88L19.7652 12.7C19.7852 12.52 19.7852 12.3 19.7852 12.08V11.98C19.7852 11.76 19.7852 11.54 19.7652 11.36L18.4452 11.18C18.1652 11.14 17.9252 10.92 17.8652 10.64C17.7252 10.02 17.4852 9.44003 17.1652 8.90003C17.1252 8.86003 17.1052 8.80002 17.0852 8.74002C17.0052 8.52002 17.0452 8.26003 17.1852 8.08003L18.0052 7.00003C17.8852 6.86003 17.7452 6.70002 17.5852 6.54002L17.5052 6.46004C17.3452 6.30004 17.1852 6.16002 17.0452 6.04002L15.9852 6.84002C15.7252 7.02002 15.3852 7.02002 15.1452 6.84002C14.6252 6.52002 14.0452 6.28002 13.4452 6.12002C13.1652 6.06002 12.9452 5.82002 12.9052 5.52002L12.7252 4.18003C12.5452 4.16003 12.3252 4.16004 12.1052 4.16004H12.0052C11.7852 4.16004 11.5652 4.16003 11.3852 4.18003L11.2052 5.50003C11.1652 5.82003 10.9252 6.06003 10.6052 6.10003C10.0052 6.24003 9.42518 6.48003 8.90518 6.80003C8.74518 6.90003 8.54519 6.92003 8.36519 6.88003C8.26519 6.86003 8.16518 6.80002 8.08518 6.74002L7.04517 5.94002C6.90517 6.06002 6.74518 6.20004 6.58518 6.36004L6.50518 6.44002C6.34518 6.60002 6.20518 6.76003 6.08518 6.90003L6.88518 7.96004C7.06518 8.20004 7.06517 8.50004 6.92517 8.76004C6.90517 8.78004 6.90518 8.80002 6.88518 8.82002C6.56518 9.34002 6.32518 9.92002 6.18518 10.52C6.12518 10.8 5.88518 11.02 5.58518 11.06L4.24517 11.24C4.22517 11.42 4.22517 11.64 4.22517 11.86V11.96C4.22517 12.18 4.22517 12.4 4.24517 12.58L5.56519 12.76C5.88519 12.8 6.12519 13.04 6.16519 13.36V13.38C6.30519 13.98 6.54519 14.54 6.86519 15.06C6.96519 15.24 7.00517 15.46 6.92517 15.66C6.90517 15.74 6.84518 15.82 6.78518 15.9L6.00518 16.94C6.12518 17.08 6.26517 17.24 6.42517 17.4L6.50518 17.48C6.66518 17.64 6.82519 17.78 6.96519 17.9L8.02517 17.1C8.28517 16.9 8.66518 16.92 8.90518 17.12C9.42518 17.44 9.98519 17.66 10.5652 17.8C10.8452 17.86 11.0652 18.1 11.1052 18.4L11.2852 19.76Z" fill="#51357B"/>
</svg>
